<svg width="25" height="25" viewBox="0 0 25 25" fill="none" xmlns="http://www.w3.org/2000/svg">
<path d="M16.6295 1.15551C16.6617 1.04342 16.6729 0.925634 16.6626 0.808883C16.6523 0.692133 16.6206 0.578702 16.5694 0.475066C16.5182 0.371431 16.4484 0.279621 16.3641 0.204878C16.2798 0.130135 16.1825 0.0739228 16.0779 0.0394513C15.9733 0.00497972 15.8634 -0.00707623 15.7544 0.00397164C15.6455 0.0150195 15.5396 0.0489549 15.4429 0.10384C15.3462 0.158726 15.2605 0.233486 15.1907 0.323853C15.121 0.41422 15.0685 0.518424 15.0364 0.630515L8.37049 23.8445C8.30552 24.0709 8.32714 24.3156 8.43058 24.5249C8.53403 24.7342 8.71083 24.8909 8.92209 24.9605C9.13336 25.0302 9.36178 25.007 9.5571 24.8962C9.75243 24.7853 9.89867 24.5959 9.96364 24.3695L16.6295 1.15551V1.15551ZM7.25729 5.61795C7.33489 5.70089 7.39645 5.79941 7.43846 5.90788C7.48046 6.01636 7.50208 6.13264 7.50208 6.25008C7.50208 6.36752 7.48046 6.48381 7.43846 6.59228C7.39645 6.70075 7.33489 6.79928 7.25729 6.88222L2.01292 12.5L7.25729 18.1178C7.41375 18.2854 7.50165 18.5128 7.50165 18.7499C7.50165 18.987 7.41375 19.2144 7.25729 19.3821C7.10083 19.5497 6.88863 19.6439 6.66736 19.6439C6.4461 19.6439 6.23389 19.5497 6.07743 19.3821L0.244794 13.1321C0.167198 13.0492 0.105634 12.9507 0.0636278 12.8422C0.0216221 12.7337 0 12.6174 0 12.5C0 12.3826 0.0216221 12.2663 0.0636278 12.1578C0.105634 12.0493 0.167198 11.9508 0.244794 11.8679L6.07743 5.61795C6.15483 5.5348 6.24678 5.46883 6.34801 5.42382C6.44924 5.37881 6.55776 5.35564 6.66736 5.35564C6.77696 5.35564 6.88548 5.37881 6.98671 5.42382C7.08794 5.46883 7.17989 5.5348 7.25729 5.61795V5.61795ZM17.7427 5.61795C17.6651 5.70089 17.6035 5.79941 17.5615 5.90788C17.5195 6.01636 17.4979 6.13264 17.4979 6.25008C17.4979 6.36752 17.5195 6.48381 17.5615 6.59228C17.6035 6.70075 17.6651 6.79928 17.7427 6.88222L22.9871 12.5L17.7427 18.1178C17.6652 18.2008 17.6038 18.2993 17.5619 18.4078C17.5199 18.5163 17.4984 18.6325 17.4984 18.7499C17.4984 18.8673 17.5199 18.9836 17.5619 19.092C17.6038 19.2005 17.6652 19.299 17.7427 19.3821C17.8202 19.4651 17.9122 19.5309 18.0134 19.5758C18.1146 19.6208 18.2231 19.6439 18.3326 19.6439C18.4422 19.6439 18.5507 19.6208 18.6519 19.5758C18.7531 19.5309 18.8451 19.4651 18.9226 19.3821L24.7552 13.1321C24.8328 13.0492 24.8944 12.9507 24.9364 12.8422C24.9784 12.7337 25 12.6174 25 12.5C25 12.3826 24.9784 12.2663 24.9364 12.1578C24.8944 12.0493 24.8328 11.9508 24.7552 11.8679L18.9226 5.61795C18.8452 5.5348 18.7532 5.46883 18.652 5.42382C18.5508 5.37881 18.4422 5.35564 18.3326 5.35564C18.223 5.35564 18.1145 5.37881 18.0133 5.42382C17.9121 5.46883 17.8201 5.5348 17.7427 5.61795V5.61795Z" fill="black"/>
</svg>
