<svg width="27" height="34" viewBox="0 0 27 34" fill="none" xmlns="http://www.w3.org/2000/svg">
<path d="M25.2597 19.2607C25.5664 19.529 25.7626 19.8528 25.8994 20.2286C26.085 20.7387 26.0865 21.2093 25.8625 21.6708C25.6386 22.1323 25.3116 22.4185 24.8733 22.5781L22.0123 23.6194L8.46719 10.3096L7.49817 10.6623L5.67733 29.5648L2.75872 30.6271C2.21653 30.8245 1.66892 30.7198 1.10613 30.2862C0.543336 29.8527 0.295549 29.2437 0.374301 28.455L3.49277 2.52906C3.62078 1.76808 3.98629 1.30065 4.56309 1.09071C5.1745 0.868175 5.73187 0.999703 6.24988 1.52556L25.2597 19.2607ZM6.64429 32.724L8.65683 12.3382L23.3023 26.661L22.8088 27.8894L14.0109 27.0484L7.74275 33.373L6.64429 32.724Z" fill="black"/>
</svg>
