<svg width="20" height="25" viewBox="0 0 20 25" fill="none" xmlns="http://www.w3.org/2000/svg">
<path d="M18.6486 0H8.1982C7.8398 8.73284e-09 7.49607 0.16462 7.24265 0.457645C6.98922 0.750671 6.84685 1.1481 6.84685 1.5625C6.84685 1.9769 6.98922 2.37433 7.24265 2.66735C7.49607 2.96038 7.8398 3.125 8.1982 3.125H11.8198L5.64324 21.875H1.35135C0.992951 21.875 0.649229 22.0396 0.395801 22.3326C0.142374 22.6257 0 23.0231 0 23.4375C0 23.8519 0.142374 24.2493 0.395801 24.5424C0.649229 24.8354 0.992951 25 1.35135 25H11.8018C12.1602 25 12.5039 24.8354 12.7574 24.5424C13.0108 24.2493 13.1532 23.8519 13.1532 23.4375C13.1532 23.0231 13.0108 22.6257 12.7574 22.3326C12.5039 22.0396 12.1602 21.875 11.8018 21.875H8.53694L14.7135 3.125H18.6486C19.007 3.125 19.3508 2.96038 19.6042 2.66735C19.8576 2.37433 20 1.9769 20 1.5625C20 1.1481 19.8576 0.750671 19.6042 0.457645C19.3508 0.16462 19.007 8.73284e-09 18.6486 0V0Z" fill="black"/>
</svg>
